<svg width="125" height="125" viewBox="0 0 125 125" fill="none" xmlns="http://www.w3.org/2000/svg">
<path d="M0.152344 62.4693C0.152344 62.4347 0.152344 62.4 0.152344 62.3653C0.221619 62.3653 0.290894 62.3306 0.325531 62.296C1.78031 61.4638 3.23508 60.597 4.7245 59.7648C4.79377 59.7302 4.86305 59.6608 4.93232 59.5915C3.44291 58.5166 1.98813 57.4764 0.464081 56.4015C2.19596 55.6041 3.8932 54.8413 5.59044 54.0438C4.1703 52.7956 2.7848 51.582 1.36466 50.2991C3.13117 49.675 4.86305 49.1202 6.62956 48.4961C5.34797 47.1092 4.10102 45.8263 2.85407 44.4393C4.7245 43.9886 6.52565 43.5725 8.36144 43.1564C7.18376 41.6308 6.11 40.1745 4.93232 38.6836C6.80275 38.4409 8.6039 38.1982 10.4397 37.9555C9.4352 36.3605 8.49999 34.8349 7.53014 33.2399C9.4352 33.1706 11.271 33.1012 13.1761 33.0319C12.3448 31.3329 11.5481 29.7033 10.6822 27.9696C12.5526 28.1083 14.3537 28.2123 16.2242 28.3164C15.566 26.5827 14.9426 24.8837 14.2845 23.1154C16.1895 23.4275 17.9907 23.7048 19.8611 24.0169C19.3762 22.1792 18.8912 20.4109 18.4063 18.5732C20.2421 19.0587 21.974 19.5094 23.7405 19.9948C23.4288 18.1572 23.1517 16.3888 22.8399 14.5165C24.6411 15.2099 26.3383 15.8341 28.1048 16.4928C28.0009 14.5512 27.8624 12.7482 27.7585 10.8758C29.4557 11.708 31.049 12.5054 32.7116 13.3029C32.7809 11.4306 32.8502 9.62758 32.8848 7.75523C34.5128 8.76075 36.0715 9.7316 37.6648 10.7371C37.9073 8.86477 38.1497 7.0271 38.4268 5.15475C39.9509 6.29896 41.3364 7.4085 42.8258 8.51804C43.2414 6.68037 43.6571 4.94671 44.0727 3.10904C45.4582 4.39194 46.8091 5.64017 48.1946 6.95775C48.8181 5.15475 49.4069 3.4211 50.0304 1.6181C51.2773 3.03969 52.455 4.39194 53.702 5.77887C54.464 4.07989 55.226 2.41558 55.988 0.716599C57.0964 2.27689 58.1702 3.76783 59.2786 5.29344C59.625 4.704 59.9367 4.14923 60.2485 3.62914C60.8719 2.55427 61.4608 1.47941 62.0843 0.404541C62.1189 0.404541 62.1535 0.404541 62.1882 0.404541C62.4653 0.924637 62.777 1.47941 63.0541 1.9995C63.6429 3.0397 64.2664 4.11456 64.9245 5.2241C65.9983 3.69848 67.0721 2.24221 68.1458 0.716599C68.9425 2.48493 69.7045 4.14923 70.4665 5.88289C71.7481 4.46129 72.9604 3.07437 74.2074 1.6181C74.8309 3.4211 75.3851 5.12008 76.0085 6.8884C77.3594 5.6055 78.6756 4.35727 80.0611 3.10904C80.5114 4.98139 80.9271 6.74971 81.3427 8.62206C82.8321 7.47785 84.2869 6.36831 85.811 5.18943C86.0534 7.06177 86.2959 8.86477 86.5384 10.7024C88.1317 9.69693 89.6557 8.76075 91.2491 7.78991C91.3183 9.69692 91.3876 11.5346 91.4569 13.4416C93.1887 12.6095 94.8167 11.7773 96.514 10.9452C96.3754 12.8175 96.2715 14.6205 96.1676 16.4582C97.9341 15.7994 99.5967 15.1753 101.363 14.5165C101.051 16.4235 100.774 18.2265 100.463 20.0988C102.298 19.6134 104.065 19.128 105.901 18.6426C105.416 20.4802 104.931 22.2139 104.481 23.9822C106.316 23.6702 108.083 23.3928 109.953 23.0807C109.295 24.8837 108.637 26.5827 107.979 28.351C109.884 28.247 111.72 28.1083 113.625 28.0043C112.794 29.7033 111.997 31.2982 111.2 32.9626C113.071 33.0319 114.872 33.1012 116.742 33.1706C115.738 34.8002 114.768 36.3605 113.763 37.9555C115.634 38.1982 117.47 38.4409 119.375 38.7183C118.232 40.2439 117.123 41.6308 116.015 43.1218C117.851 43.5378 119.617 43.9539 121.418 44.4047C120.102 45.8263 118.855 47.1438 117.574 48.5308C119.409 49.1549 121.141 49.7443 122.908 50.3684C121.488 51.6167 120.137 52.7956 118.751 54.0438C120.483 54.8066 122.111 55.5694 123.808 56.3322C122.25 57.4417 120.76 58.5166 119.236 59.6261C119.998 60.0769 120.691 60.493 121.418 60.8744C122.319 61.3945 123.219 61.8799 124.12 62.4C124.12 62.4347 124.12 62.4693 124.12 62.504C123.739 62.712 123.393 62.8854 123.046 63.0934C121.834 63.7869 120.587 64.515 119.34 65.2432C120.829 66.318 122.319 67.3929 123.843 68.4678C122.076 69.2653 120.414 70.0281 118.717 70.8255C120.137 72.0738 121.522 73.2873 122.977 74.5702C121.176 75.1943 119.479 75.7491 117.712 76.3732C118.994 77.7255 120.241 79.0431 121.522 80.43C119.652 80.8807 117.885 81.2968 116.05 81.7129C117.193 83.2385 118.301 84.6948 119.479 86.1857C117.608 86.4284 115.807 86.6711 113.971 86.9138C114.941 88.5088 115.911 90.0344 116.881 91.6294C114.976 91.6987 113.14 91.7681 111.235 91.8374C112.066 93.5364 112.898 95.166 113.729 96.8997C111.858 96.761 110.057 96.657 108.187 96.553C108.845 98.2866 109.468 99.9856 110.127 101.754C108.221 101.442 106.42 101.13 104.55 100.852C105.035 102.69 105.52 104.458 106.005 106.296C104.169 105.811 102.437 105.325 100.67 104.874C100.982 106.712 101.259 108.48 101.571 110.353C99.7699 109.659 98.0726 109.035 96.3061 108.376C96.41 110.283 96.5486 112.086 96.6525 113.994C94.9553 113.161 93.3619 112.364 91.6993 111.566C91.6301 113.439 91.5608 115.242 91.5261 117.114C89.8982 116.109 88.3395 115.138 86.7462 114.132C86.5037 116.005 86.2613 117.842 86.0188 119.715C84.4947 118.57 83.0746 117.461 81.6198 116.351C81.2042 118.189 80.7885 119.923 80.3729 121.76C78.9874 120.443 77.6365 119.194 76.251 117.912C75.6275 119.715 75.0387 121.448 74.4152 123.251C73.1683 121.83 71.9906 120.477 70.7436 119.09C69.9816 120.789 69.2196 122.454 68.4576 124.153C67.3492 122.592 66.2754 121.101 65.167 119.576C64.8206 120.131 64.5435 120.651 64.2318 121.171C63.6083 122.28 62.9848 123.39 62.3614 124.465C62.3267 124.465 62.2921 124.465 62.2574 124.465C61.634 123.39 61.0451 122.28 60.4216 121.206C60.1446 120.72 59.8328 120.2 59.5211 119.68C58.4473 121.206 57.3735 122.662 56.2998 124.187C55.5031 122.419 54.7411 120.755 53.9444 119.056C52.6628 120.477 51.4852 121.864 50.2036 123.321C49.5801 121.518 49.0259 119.819 48.4371 118.05C47.0516 119.333 45.7353 120.581 44.3845 121.83C43.9342 119.957 43.5185 118.189 43.1029 116.317C41.5788 117.461 40.1241 118.57 38.6 119.749C38.3575 117.842 38.1151 116.109 37.8726 114.236C36.2793 115.242 34.7552 116.178 33.1619 117.149C33.0926 115.242 33.0234 113.404 32.9541 111.497C31.2568 112.329 29.5942 113.127 27.897 113.994C28.0009 112.121 28.1048 110.318 28.2434 108.48C26.4769 109.139 24.8143 109.763 23.0478 110.422C23.3595 108.515 23.6366 106.712 23.9483 104.84C22.1125 105.325 20.346 105.776 18.5102 106.296C18.9952 104.458 19.4454 102.725 19.9304 100.956C18.0946 101.234 16.3281 101.546 14.4576 101.858C15.1158 100.055 15.7739 98.356 16.432 96.5876C14.5269 96.6917 12.6911 96.8303 10.8207 96.9344C11.652 95.2354 12.4487 93.6404 13.2453 91.9414C11.3749 91.8721 9.57375 91.8374 7.70333 91.7681C8.70781 90.1384 9.67766 88.5781 10.6822 86.9832C8.81173 86.7405 6.97594 86.4978 5.10551 86.2204C6.24855 84.6948 7.35695 83.2732 8.46535 81.8169C6.62956 81.4008 4.89769 80.9847 3.0619 80.5687C4.34348 79.1817 5.59044 77.8295 6.90666 76.4426C5.10551 75.8185 3.37363 75.229 1.57248 74.6049C2.99262 73.3567 4.34348 72.1778 5.72899 70.9296C3.99711 70.1321 2.36915 69.4039 0.671907 68.6411C2.2306 67.4969 3.72001 66.4567 5.24406 65.3472C4.4474 64.8964 3.75465 64.4457 3.02726 64.0643C1.9535 63.4402 1.05292 62.9548 0.152344 62.4693Z" fill="url(#paint0_linear)"/>
<path d="M113.902 62.4C113.902 91.0747 90.6949 114.306 62.0496 114.306C33.4044 114.306 10.1973 91.0747 10.1973 62.4C10.1973 33.7254 33.4044 10.4944 62.0496 10.4944C90.6949 10.4944 113.902 33.7254 113.902 62.4Z" fill="white"/>
<path fill-rule="evenodd" clip-rule="evenodd" d="M14.2499 70.7562C22.7014 39.3077 73.3415 15.6606 56.854 46.9704C56.1613 24.3983 23.0132 54.2518 14.2499 70.7562Z" fill="#312B83"/>
<path fill-rule="evenodd" clip-rule="evenodd" d="M33.5084 48.7389L33.7163 58.4126L49.5802 63.5789L42.3756 42.567C39.7432 44.0233 36.7297 46.173 33.5084 48.7389Z" fill="#E30D17"/>
<path fill-rule="evenodd" clip-rule="evenodd" d="M19.8265 56.8869C24.468 45.3061 30.1139 30.8127 34.3743 21.2776L40.3666 37.1926C37.7688 38.6488 35.3095 40.4865 32.9195 42.5669L31.3262 30.0846L28.2088 47.0397C25.2646 49.8483 22.1473 53.8703 19.8265 56.8869Z" fill="#E30D17"/>
<path d="M50.0997 59.0021L52.8015 58.7247C52.94 59.6609 53.2864 60.3544 53.7713 60.8051C54.2562 61.2559 54.9144 61.4639 55.7803 61.4639C56.6809 61.4639 57.339 61.2905 57.7893 60.8745C58.2396 60.4584 58.482 60.0423 58.482 59.4875C58.482 59.1408 58.3781 58.8634 58.2049 58.6207C58.0317 58.378 57.6854 58.17 57.2004 57.9966C56.8887 57.8926 56.1613 57.6845 54.9836 57.3725C53.4942 56.9911 52.4551 56.5403 51.8662 55.9856C51.0349 55.1881 50.6193 54.2519 50.6193 53.1424C50.6193 52.4142 50.8271 51.7554 51.2081 51.0967C51.5891 50.4725 52.178 49.9871 52.9054 49.6404C53.6674 49.3283 54.5333 49.155 55.6071 49.155C57.339 49.155 58.6206 49.5364 59.4865 50.3338C60.3524 51.1313 60.8027 52.1715 60.8374 53.4544L58.0664 53.5931C57.9625 52.865 57.6854 52.3449 57.3043 52.0328C56.9233 51.7208 56.3345 51.5474 55.5725 51.5474C54.7758 51.5474 54.1523 51.7208 53.702 52.0675C53.4249 52.2755 53.2517 52.5876 53.2517 52.9343C53.2517 53.2811 53.3903 53.5584 53.6674 53.8012C54.0138 54.1132 54.8451 54.4253 56.1959 54.7373C57.5468 55.0841 58.5513 55.3961 59.1748 55.7428C59.8329 56.0896 60.3178 56.575 60.6988 57.1991C61.0452 57.8232 61.253 58.5514 61.253 59.4529C61.253 60.285 61.0452 61.0478 60.5949 61.7413C60.1446 62.4694 59.5558 62.9895 58.7591 63.3362C57.9625 63.683 56.958 63.8563 55.7803 63.8563C54.0484 63.8563 52.7322 63.4403 51.797 62.6081C50.8271 61.776 50.2729 60.5971 50.0997 59.0021ZM63.5737 63.6136V49.3977H67.9727C69.6353 49.3977 70.7437 49.467 71.2633 49.6057C72.0599 49.8137 72.718 50.2992 73.2376 50.9926C73.7572 51.7208 74.0343 52.6223 74.0343 53.7665C74.0343 54.6333 73.8957 55.3614 73.584 55.9509C73.2722 56.5403 72.8912 57.0257 72.4409 57.3725C71.956 57.7192 71.5057 57.9272 71.0208 58.0313C70.3627 58.17 69.3928 58.2393 68.1459 58.2393H66.3447V63.579H63.5737V63.6136ZM66.3101 51.8248V55.8469H67.8342C68.9079 55.8469 69.6353 55.7775 70.0163 55.6388C70.3973 55.5001 70.6744 55.2574 70.8822 54.9454C71.0901 54.6333 71.194 54.2519 71.194 53.8358C71.194 53.3157 71.0554 52.8997 70.7437 52.5529C70.4666 52.2062 70.0856 51.9982 69.6353 51.9288C69.2889 51.8595 68.6308 51.8248 67.661 51.8248H66.3101ZM76.2164 63.6136V49.3977H78.9874V63.6136H76.2164ZM81.6199 63.6136V49.3977H87.439C88.8938 49.3977 89.9675 49.5364 90.6256 49.7791C91.2838 50.0218 91.8033 50.4725 92.219 51.1313C92.6 51.7901 92.8078 52.5182 92.8078 53.3851C92.8078 54.4599 92.4961 55.3268 91.9072 56.0202C91.2838 56.7137 90.3832 57.1644 89.2055 57.3378C89.7943 57.6845 90.2793 58.1006 90.6949 58.5167C91.0759 58.9328 91.5955 59.7302 92.2536 60.8051L93.9162 63.579H90.591L88.582 60.493C87.8546 59.3835 87.4044 58.6901 87.1273 58.4127C86.8848 58.1353 86.6077 57.9272 86.296 57.8232C86.0189 57.7192 85.5339 57.6499 84.9104 57.6499H84.3562V63.579H81.6199V63.6136ZM84.3909 55.4308H86.4345C87.7507 55.4308 88.582 55.3614 88.9284 55.2574C89.2401 55.1534 89.5173 54.9454 89.6904 54.668C89.8636 54.3906 89.9675 54.0092 89.9675 53.5931C89.9675 53.1077 89.8636 52.7263 89.5865 52.4489C89.3441 52.1368 88.9977 51.9635 88.5474 51.8941C88.3396 51.8595 87.6468 51.8595 86.5384 51.8595H84.3909V55.4308ZM107.771 63.6136H104.758L103.58 60.389H98.1074L96.9989 63.6136H94.0548L99.3889 49.3977H102.298L107.771 63.6136ZM102.68 57.9966L100.774 52.7263L98.9387 57.9966H102.68Z" fill="#312B83"/>
<path d="M77.8097 67.7395V72.6631H76.4589V65.9365H78.2946L80.9617 70.9641V65.9365H82.3472V72.6631H80.5807L77.8097 67.7395ZM83.6635 67.7742H85.0143V72.6978H83.6635V67.7742ZM83.6635 67.2888V65.9712H85.0143V67.2888H83.6635ZM91.0413 67.7742V72.6631C91.0413 72.9405 91.0066 73.1832 90.9373 73.3912C90.8681 73.5993 90.7988 73.8073 90.6602 73.946C90.5217 74.1194 90.3139 74.2581 90.106 74.3274C89.8982 74.3968 89.5865 74.4314 89.1708 74.4314H86.4691V73.3912H88.963C89.2401 73.3912 89.4479 73.3566 89.5518 73.2525C89.6558 73.1832 89.6904 72.9752 89.6904 72.6978H88.4434C88.0278 72.6978 87.7161 72.6631 87.4736 72.5938C87.2311 72.5244 86.9887 72.3857 86.7808 72.1777C86.2959 71.7269 86.0535 71.0681 86.0535 70.2707C86.0535 69.3345 86.3652 68.641 86.954 68.2249C87.1619 68.0863 87.4043 67.9822 87.6468 67.9129C87.8892 67.8435 88.201 67.8089 88.5474 67.8089H91.0413V67.7742ZM89.6904 68.8144H88.582C87.7853 68.8144 87.4043 69.2998 87.4043 70.236C87.4043 70.6867 87.5082 71.0681 87.7161 71.2762C87.9239 71.5189 88.2356 71.6229 88.6166 71.6229H89.6558V68.8144H89.6904ZM94.8514 65.9712H96.2715V69.7506C96.2715 70.236 96.3062 70.548 96.3408 70.7214C96.3754 71.0335 96.5486 71.2415 96.7911 71.3455C97.0336 71.4495 97.4838 71.5189 98.1073 71.5189H99.4928V72.6978H97.9688C97.2414 72.6978 96.7218 72.6631 96.4101 72.5938C95.6827 72.3857 95.1978 71.9003 94.9899 71.1722C94.9207 70.8948 94.886 70.4093 94.886 69.7506V65.9712H94.8514ZM100.636 67.7742V65.9712H101.987V67.7742H103.234V68.8144H101.987V70.5827C101.987 70.9988 102.021 71.2762 102.091 71.3802C102.195 71.5536 102.402 71.6229 102.714 71.6229H103.234V72.6631H102.264C101.675 72.6631 101.259 72.5244 101.017 72.247C100.774 71.9696 100.636 71.4842 100.636 70.8254V68.8144H99.7699V67.7742H100.636ZM107.459 67.7742V65.9712H108.81V72.6978H106.49C106.005 72.6978 105.658 72.6631 105.416 72.5938C104.827 72.4204 104.411 72.039 104.134 71.5189C103.961 71.1722 103.857 70.7214 103.857 70.2013C103.857 69.3692 104.134 68.7104 104.688 68.2249C105.069 67.9129 105.554 67.7742 106.178 67.7742H107.459ZM107.459 71.6576V68.8491H106.49C106.074 68.8491 105.728 68.9878 105.52 69.2651C105.347 69.5078 105.243 69.8199 105.243 70.2013C105.243 70.7561 105.381 71.1375 105.728 71.3802C105.935 71.5536 106.212 71.6229 106.524 71.6229H107.459V71.6576Z" fill="#E30D17"/>
<path d="M22.4935 79.4594C22.4935 79.2167 22.5628 78.9739 22.6667 78.7312C22.7706 78.4885 22.9092 78.2805 23.0824 78.0724L23.9137 77.1016C23.9829 77.0322 24.0522 76.9976 24.1215 76.9629C24.1908 76.9282 24.3293 76.9282 24.4679 76.9282C24.5718 76.9282 24.6411 76.9282 24.6757 76.9282C24.7103 76.9282 24.7796 76.9629 24.7796 76.9629C24.8142 76.9976 24.8142 76.9976 24.8142 77.0322C24.8142 77.0669 24.7796 77.1016 24.745 77.1363L23.879 78.4885L23.7405 79.2166C23.7058 79.3207 23.7058 79.4247 23.6712 79.494C23.6366 79.5634 23.6019 79.5981 23.5327 79.6674C23.4634 79.7021 23.3941 79.7367 23.3248 79.7367C23.2556 79.7367 23.1516 79.7714 23.0131 79.7714C22.9092 79.7714 22.8053 79.7714 22.736 79.7367C22.6667 79.7367 22.5974 79.7021 22.5628 79.6674C22.5282 79.6327 22.4935 79.5981 22.4935 79.5634C22.5282 79.5634 22.4935 79.5287 22.4935 79.4594ZM24.4679 79.4594C24.4679 79.2167 24.5371 78.9739 24.6411 78.7312C24.745 78.4885 24.8835 78.2805 25.0567 78.0724L25.888 77.1016C25.9573 77.0322 26.0266 76.9976 26.0958 76.9629C26.1651 76.9282 26.3037 76.9282 26.4422 76.9282C26.5461 76.9282 26.6154 76.9282 26.65 76.9282C26.7193 76.9282 26.754 76.9629 26.754 76.9629C26.7886 76.9976 26.7886 76.9976 26.7886 77.0322C26.7886 77.0669 26.754 77.1016 26.754 77.1363L25.888 78.4885L25.7495 79.2166C25.7148 79.3207 25.7148 79.4247 25.6802 79.494C25.6456 79.5634 25.6109 79.5981 25.5416 79.6674C25.4724 79.7021 25.4031 79.7367 25.3338 79.7367C25.2645 79.7367 25.1606 79.7714 25.0221 79.7714C24.9182 79.7714 24.8142 79.7714 24.745 79.7367C24.6757 79.7367 24.6064 79.7021 24.5718 79.6674C24.5371 79.6327 24.5025 79.5981 24.5025 79.5634C24.5025 79.5287 24.4679 79.5287 24.4679 79.4594Z" fill="#2B2523"/>
<path d="M30.8065 77.9335C30.8065 77.9682 30.8065 78.0028 30.8065 78.0375C30.8065 78.0722 30.8065 78.1415 30.7719 78.2109C30.7719 78.2802 30.7373 78.3149 30.7373 78.3842C30.7373 78.4536 30.7026 78.4883 30.668 78.5576C30.6333 78.5923 30.6333 78.6616 30.5987 78.6963C30.5641 78.731 30.5294 78.731 30.5294 78.731C30.4948 78.731 30.4255 78.6963 30.3562 78.6616C30.287 78.6269 30.1831 78.5576 30.1138 78.5229C30.0099 78.4882 29.906 78.4189 29.7674 78.3842C29.6289 78.3496 29.4903 78.3149 29.3171 78.3149C29.1439 78.3149 28.9707 78.3496 28.8668 78.3842C28.7283 78.4189 28.6244 78.4883 28.5551 78.5923C28.4858 78.6616 28.4165 78.7656 28.3819 78.8697C28.3473 78.9737 28.3126 79.0777 28.3126 79.1817C28.3126 79.2857 28.3473 79.4244 28.4165 79.4938C28.4858 79.5978 28.5551 79.6671 28.659 79.7365C28.7629 79.8058 28.8668 79.8752 29.0054 79.9792C29.1439 80.0485 29.2478 80.1179 29.3864 80.2219C29.5249 80.2912 29.6635 80.3953 29.7674 80.4993C29.906 80.6033 30.0099 80.7073 30.1138 80.846C30.2177 80.9847 30.287 81.1234 30.3562 81.2621C30.4255 81.4355 30.4602 81.6088 30.4602 81.8169C30.4602 82.1289 30.3909 82.4063 30.287 82.6837C30.1484 82.9611 29.9752 83.1691 29.7328 83.3771C29.4903 83.5852 29.2132 83.7239 28.9015 83.8279C28.5897 83.9319 28.2087 84.0013 27.7931 84.0013C27.5852 84.0013 27.3774 83.9666 27.2042 83.9319C27.031 83.8972 26.8579 83.8626 26.7193 83.7932C26.5808 83.7586 26.4422 83.6892 26.3729 83.6199C26.269 83.5505 26.1997 83.5158 26.1651 83.4465C26.1305 83.4118 26.0958 83.3078 26.0958 83.2038C26.0958 83.1691 26.0958 83.1344 26.0958 83.0998C26.0958 83.0304 26.0958 82.9957 26.1305 82.9264C26.1305 82.8571 26.1651 82.7877 26.1651 82.753C26.1651 82.6837 26.1997 82.6143 26.2344 82.5797C26.269 82.5103 26.269 82.4757 26.3037 82.441C26.3383 82.4063 26.3729 82.4063 26.4076 82.4063C26.4768 82.4063 26.5461 82.441 26.6154 82.4756C26.6847 82.5103 26.7886 82.5797 26.8925 82.649C26.9964 82.7184 27.135 82.753 27.3081 82.8224C27.4813 82.8917 27.6545 82.8917 27.897 82.8917C28.1048 82.8917 28.278 82.8571 28.4165 82.8224C28.5551 82.7877 28.6936 82.7184 28.7976 82.6143C28.9015 82.5103 28.9707 82.441 29.04 82.3023C29.0747 82.1983 29.1093 82.0596 29.1093 81.9209C29.1093 81.7822 29.0747 81.6782 29.0054 81.6088C28.9361 81.5048 28.8668 81.4355 28.7629 81.3661C28.659 81.2968 28.5551 81.2274 28.4165 81.1581C28.278 81.0887 28.1741 81.0194 28.0355 80.95C27.897 80.8807 27.7931 80.7767 27.6545 80.6727C27.516 80.5686 27.4121 80.4646 27.3081 80.3606C27.2042 80.2219 27.135 80.0832 27.0657 79.9445C26.9964 79.7712 26.9618 79.5978 26.9618 79.3897C26.9618 79.0777 27.031 78.8003 27.135 78.5576C27.2389 78.3149 27.4121 78.0722 27.6199 77.8988C27.8277 77.7254 28.1048 77.5867 28.3819 77.4827C28.659 77.3787 29.0054 77.344 29.3518 77.344C29.5249 77.344 29.6635 77.344 29.8367 77.3787C29.9752 77.4134 30.1138 77.4481 30.2523 77.4827C30.3909 77.5174 30.4948 77.5521 30.5641 77.6214C30.6333 77.6908 30.7026 77.6908 30.7373 77.7254C30.7719 77.7601 30.8065 77.7948 30.8065 77.8295C30.8065 77.8641 30.8065 77.8988 30.8065 77.9335Z" fill="#2B2523"/>
<path d="M35.6211 79.2856C35.6211 79.3203 35.6211 79.3896 35.6211 79.4243C35.6211 79.4936 35.5864 79.5283 35.5864 79.5977C35.4825 79.9097 35.344 80.2218 35.2054 80.5338C35.0669 80.8459 34.9283 81.1926 34.7551 81.5394C34.5819 81.8861 34.4087 82.2328 34.1663 82.6142C33.9238 82.9956 33.716 83.377 33.4042 83.7584L32.1919 85.4921C32.1573 85.5268 32.1227 85.5614 32.088 85.5961C32.0534 85.6308 31.9841 85.6308 31.9148 85.6654C31.8456 85.7001 31.7763 85.7001 31.6724 85.7001C31.5685 85.7001 31.4645 85.7001 31.326 85.7001C31.1874 85.7001 31.0835 85.7001 30.9796 85.6654C30.8757 85.6308 30.8411 85.6308 30.7718 85.5961C30.7025 85.5614 30.7025 85.5268 30.7025 85.4921C30.7025 85.4574 30.7372 85.3881 30.7718 85.3534L31.9148 83.8624L31.1874 79.563C31.1874 79.5283 31.1874 79.459 31.1528 79.4243C31.1528 79.3896 31.1528 79.3203 31.1528 79.3203C31.1528 79.2509 31.1528 79.2163 31.1874 79.1816C31.2221 79.1469 31.2567 79.1122 31.2914 79.1122C31.326 79.0776 31.3953 79.0776 31.4992 79.0776C31.6031 79.0776 31.707 79.0776 31.8109 79.0776C31.9495 79.0776 32.0534 79.0776 32.1227 79.0776C32.1919 79.0776 32.2612 79.0776 32.2958 79.1122C32.3305 79.1122 32.3651 79.1469 32.3651 79.1816C32.3651 79.2163 32.3998 79.2509 32.3998 79.3203L32.85 82.4409C33.0232 82.1981 33.1618 81.9208 33.3003 81.678C33.4389 81.4353 33.5774 81.158 33.6813 80.8806C33.7853 80.6032 33.8892 80.3605 33.9931 80.0831C34.097 79.8057 34.1663 79.5283 34.2702 79.2509C34.2702 79.2163 34.3048 79.1816 34.3048 79.1469C34.3395 79.1122 34.3741 79.1122 34.4087 79.0776C34.4434 79.0429 34.5473 79.0429 34.6166 79.0429C34.7205 79.0429 34.8244 79.0429 34.9629 79.0429C35.1708 79.0429 35.3093 79.0429 35.4132 79.0776C35.5864 79.1469 35.6211 79.2163 35.6211 79.2856Z" fill="#2B2523"/>
<path d="M42.6525 83.7583C42.6525 83.793 42.6178 83.8277 42.6178 83.8623C42.6178 83.897 42.5486 83.897 42.5139 83.9317C42.4447 83.9317 42.41 83.9664 42.3061 83.9664C42.2368 83.9664 42.1329 83.9664 41.9944 83.9664C41.8905 83.9664 41.7865 83.9664 41.6826 83.9664C41.6134 83.9664 41.5441 83.9317 41.5094 83.9317C41.4748 83.9317 41.4402 83.897 41.4055 83.8623C41.4055 83.8277 41.3709 83.793 41.4055 83.7583L41.9251 81.0885C41.9251 81.0191 41.9597 80.9498 41.9597 80.8458C41.9597 80.7764 41.9597 80.7071 41.9597 80.6031C41.9597 80.4297 41.9251 80.3257 41.8558 80.2217C41.7865 80.1177 41.6826 80.083 41.5441 80.083C41.4055 80.083 41.267 80.1177 41.1284 80.2217C40.9899 80.3257 40.8513 80.4297 40.7128 80.5684C40.5742 80.7071 40.4703 80.8805 40.3664 81.0885C40.2625 81.2965 40.1932 81.5046 40.1586 81.7126L39.7429 83.7236C39.7429 83.7583 39.7083 83.793 39.7083 83.8277C39.7083 83.8623 39.639 83.8623 39.6044 83.897C39.5351 83.897 39.5005 83.9317 39.3966 83.9317C39.3273 83.9317 39.2234 83.9317 39.0848 83.9317C38.9809 83.9317 38.877 83.9317 38.7731 83.9317C38.7038 83.9317 38.6345 83.897 38.5999 83.897C38.5653 83.897 38.5306 83.8623 38.496 83.8277C38.4613 83.793 38.4613 83.7583 38.496 83.7236L39.0155 81.0538C39.0502 80.9845 39.0502 80.8805 39.0502 80.8111C39.0502 80.7418 39.0502 80.6377 39.0502 80.5684C39.0502 80.4297 39.0155 80.291 38.9463 80.2217C38.877 80.1177 38.7731 80.083 38.6345 80.083C38.496 80.083 38.3574 80.1177 38.2189 80.2217C38.0803 80.3257 37.9418 80.4297 37.8032 80.5684C37.6647 80.7071 37.5608 80.8805 37.4569 81.0885C37.3529 81.2965 37.2837 81.5046 37.249 81.7126L36.8334 83.7236C36.8334 83.7583 36.7987 83.793 36.7987 83.8277C36.7987 83.8623 36.7295 83.8623 36.6948 83.897C36.6602 83.9317 36.5909 83.9317 36.487 83.9317C36.4177 83.9317 36.3138 83.9317 36.1753 83.9317C36.0367 83.9317 35.9674 83.9317 35.8635 83.9317C35.7943 83.9317 35.725 83.897 35.6903 83.897C35.6557 83.897 35.6211 83.8623 35.5864 83.8277C35.5864 83.793 35.5864 83.7583 35.5864 83.7236L36.487 79.2508C36.487 79.2162 36.5216 79.1815 36.5216 79.1468C36.5563 79.1121 36.5909 79.1121 36.6256 79.0775C36.6602 79.0428 36.7295 79.0428 36.7987 79.0428C36.868 79.0428 36.9719 79.0428 37.0412 79.0428C37.1451 79.0428 37.2144 79.0428 37.2837 79.0428C37.3529 79.0428 37.3876 79.0775 37.4222 79.0775C37.4569 79.0775 37.4915 79.1121 37.4915 79.1468C37.4915 79.1815 37.4915 79.2162 37.4915 79.2508L37.3529 79.979C37.4222 79.8749 37.5261 79.7363 37.63 79.6322C37.734 79.4935 37.8725 79.3895 38.0111 79.3202C38.1496 79.2162 38.3228 79.1468 38.496 79.0775C38.6692 79.0081 38.8424 78.9734 39.0502 78.9734C39.258 78.9734 39.3966 79.0081 39.5697 79.0428C39.7083 79.0775 39.8122 79.1815 39.9161 79.2508C40.02 79.3202 40.0893 79.4589 40.1239 79.5629C40.1586 79.7016 40.1932 79.8056 40.2279 79.979C40.2971 79.8749 40.401 79.7363 40.505 79.6322C40.6089 79.5282 40.7474 79.3895 40.9206 79.3202C41.0592 79.2162 41.2323 79.1468 41.4055 79.0775C41.5787 79.0081 41.7519 78.9734 41.9251 78.9734C42.1676 78.9734 42.3407 79.0081 42.5139 79.0775C42.6871 79.1468 42.791 79.2162 42.8949 79.3548C42.9989 79.4935 43.0681 79.5976 43.1028 79.7709C43.1374 79.9096 43.172 80.083 43.172 80.291C43.172 80.395 43.172 80.5337 43.1374 80.6378C43.1374 80.7418 43.1028 80.8805 43.0681 80.9845L42.6525 83.7583Z" fill="#2B2523"/>
<path d="M48.818 80.7073C48.818 80.9154 48.7834 81.1581 48.7488 81.4008C48.7141 81.6435 48.6449 81.8862 48.5756 82.1636C48.5063 82.4063 48.4024 82.649 48.2638 82.8571C48.1253 83.0998 47.9867 83.2731 47.7789 83.4465C47.5711 83.6199 47.3979 83.7586 47.1554 83.8626C46.913 83.9666 46.6705 84.0013 46.3588 84.0013C46.0817 84.0013 45.8392 83.9319 45.6314 83.8279C45.4236 83.7239 45.2157 83.5505 45.0772 83.3425L45.0079 83.7239C45.0079 83.7932 44.9386 83.8279 44.8347 83.8626C44.7308 83.8973 44.5923 83.8973 44.3844 83.8973C44.1766 83.8973 44.0381 83.8973 43.9688 83.8626C43.8995 83.8279 43.8649 83.7932 43.8649 83.7239L45.1811 77.136C45.1811 77.1013 45.2157 77.0667 45.2157 77.032C45.2157 76.9973 45.285 76.9973 45.3196 76.9626C45.3889 76.928 45.4236 76.928 45.5275 76.928C45.5967 76.928 45.7007 76.928 45.8392 76.928C45.9778 76.928 46.047 76.928 46.1509 76.928C46.2202 76.928 46.2895 76.9626 46.3241 76.9626C46.3588 76.9973 46.3934 76.9973 46.428 77.032C46.428 77.0667 46.428 77.1013 46.428 77.136L46.0817 78.939C46.0817 79.0084 46.047 79.1124 46.0124 79.1817C45.9778 79.2511 45.9778 79.3551 45.9431 79.4244C45.9085 79.4938 45.9085 79.5978 45.8738 79.6671C45.8392 79.7365 45.8392 79.8058 45.8046 79.8752C45.8738 79.7712 45.9431 79.6671 46.047 79.5631C46.1509 79.4591 46.2895 79.3551 46.428 79.2857C46.5666 79.1817 46.7398 79.1124 46.8783 79.0777C47.0169 79.043 47.2247 79.0083 47.3633 79.0083C47.5364 79.0083 47.7096 79.043 47.8482 79.0777C47.9867 79.1124 48.1253 79.1817 48.2292 79.2857C48.3331 79.3551 48.4024 79.4591 48.4717 79.5978C48.5409 79.7365 48.5756 79.8405 48.6449 79.9445C48.6795 80.0832 48.7141 80.1872 48.7141 80.3259C48.7834 80.4646 48.818 80.6033 48.818 80.7073ZM47.5018 80.846C47.5018 80.7767 47.5018 80.6727 47.4672 80.5686C47.4672 80.4646 47.4325 80.3953 47.3979 80.3259C47.3633 80.2566 47.294 80.1872 47.2247 80.1526C47.1554 80.1179 47.0862 80.0832 46.9476 80.0832C46.8091 80.0832 46.6359 80.1179 46.4973 80.2219C46.3588 80.3259 46.2202 80.4299 46.0817 80.5686C45.9431 80.7073 45.8392 80.9154 45.7353 81.0887C45.6314 81.2968 45.5621 81.5048 45.5275 81.7475L45.3889 82.4063C45.4928 82.5797 45.6314 82.7184 45.7699 82.8224C45.9085 82.9264 46.0817 82.9611 46.2549 82.9611C46.3934 82.9611 46.4973 82.9264 46.6359 82.8571C46.7744 82.7877 46.8437 82.7184 46.9476 82.6144C47.0515 82.5103 47.1208 82.3716 47.1901 82.233C47.2593 82.0943 47.3286 81.9556 47.3633 81.7822C47.3979 81.6088 47.4325 81.4701 47.4672 81.2968C47.5018 81.1234 47.5018 80.9847 47.5018 80.846Z" fill="#2B2523"/>
<path d="M54.2214 80.8112C54.2214 81.0539 54.1868 81.2966 54.1522 81.5394C54.1175 81.7821 54.0483 82.0248 53.9443 82.2675C53.8404 82.5102 53.7365 82.7529 53.5633 82.961C53.4248 83.169 53.217 83.3424 53.0091 83.5157C52.8013 83.6891 52.5588 83.7931 52.2817 83.8971C52.0046 84.0011 51.6929 84.0358 51.3465 84.0358C51.0002 84.0358 50.7231 84.0011 50.4806 83.9318C50.2381 83.8625 50.0303 83.7238 49.8571 83.5851C49.6839 83.4464 49.58 83.2383 49.4761 83.0303C49.4068 82.8223 49.3722 82.5449 49.3722 82.2675C49.3722 82.0248 49.4068 81.7821 49.4415 81.5394C49.4761 81.2966 49.5454 81.0539 49.6493 80.8112C49.7532 80.5685 49.8571 80.3605 50.0303 80.1178C50.1689 79.9097 50.3767 79.7017 50.5845 79.563C50.7923 79.4243 51.0348 79.2856 51.3119 79.1816C51.589 79.0776 51.9007 79.0429 52.2471 79.0429C52.5935 79.0429 52.8706 79.0776 53.113 79.1469C53.3555 79.2163 53.5633 79.355 53.7365 79.4936C53.9097 79.6323 54.0136 79.8404 54.1175 80.0484C54.1868 80.2564 54.2214 80.4992 54.2214 80.8112ZM52.9052 80.8806C52.9052 80.7419 52.9052 80.6032 52.8706 80.4992C52.8359 80.3951 52.8013 80.2911 52.732 80.2218C52.6628 80.1524 52.5935 80.0831 52.4896 80.0484C52.3857 80.0137 52.2471 79.9791 52.1086 79.9791C51.9354 79.9791 51.7968 80.0137 51.6583 80.0831C51.5197 80.1524 51.4158 80.2218 51.3119 80.3605C51.208 80.4645 51.1041 80.6032 51.0348 80.7419C50.9655 80.8806 50.8962 81.0539 50.8616 81.1926C50.827 81.3313 50.7577 81.5047 50.7577 81.678C50.7577 81.8514 50.7231 81.9901 50.7231 82.1635C50.7231 82.3022 50.7231 82.4409 50.7577 82.5449C50.7923 82.6489 50.827 82.7529 50.8962 82.8223C50.9655 82.8916 51.0348 82.9609 51.1387 82.9956C51.2426 83.0303 51.3812 83.065 51.5197 83.065C51.6929 83.065 51.8315 83.0303 51.97 82.961C52.1086 82.8916 52.2125 82.8223 52.3164 82.6836C52.4203 82.5795 52.5242 82.4409 52.5935 82.3022C52.6628 82.1635 52.732 81.9901 52.7667 81.8514C52.8013 81.7127 52.8706 81.5394 52.8706 81.366C52.9052 81.1926 52.9052 81.0193 52.9052 80.8806Z" fill="#2B2523"/>
<path d="M55.9534 83.7585C55.9534 83.7931 55.9187 83.8278 55.9187 83.8625C55.9187 83.8972 55.8495 83.8972 55.8148 83.9318C55.7802 83.9318 55.7109 83.9665 55.607 83.9665C55.5377 83.9665 55.4338 83.9665 55.2953 83.9665C55.1567 83.9665 55.0528 83.9665 54.9835 83.9665C54.9143 83.9665 54.845 83.9318 54.8103 83.9318C54.7757 83.9318 54.7411 83.8972 54.7064 83.8625C54.7064 83.8278 54.6718 83.7931 54.7064 83.7585L56.0227 77.1706C56.0227 77.1359 56.0573 77.1013 56.0573 77.0666C56.0573 77.0319 56.1266 77.0319 56.1612 76.9972C56.2305 76.9626 56.2651 76.9626 56.369 76.9626C56.4383 76.9626 56.5422 76.9626 56.6808 76.9626C56.8193 76.9626 56.8886 76.9626 56.9925 76.9626C57.0618 76.9626 57.1311 76.9972 57.1657 76.9972C57.2003 77.0319 57.235 77.0319 57.235 77.0666C57.235 77.1013 57.235 77.1359 57.235 77.1706L55.9534 83.7585Z" fill="#2B2523"/>
<path d="M64.4396 80.8112C64.4396 81.0539 64.405 81.2966 64.3703 81.5394C64.3357 81.7821 64.2664 82.0248 64.1625 82.2675C64.0586 82.5102 63.9547 82.7529 63.7815 82.961C63.6429 83.169 63.4351 83.3424 63.2273 83.5157C63.0194 83.6891 62.777 83.7931 62.4999 83.8971C62.2228 84.0011 61.911 84.0358 61.5647 84.0358C61.2183 84.0358 60.9412 84.0011 60.6987 83.9318C60.4563 83.8625 60.2484 83.7238 60.0753 83.5851C59.9021 83.4464 59.7982 83.2383 59.6942 83.0303C59.625 82.8223 59.5903 82.5449 59.5903 82.2675C59.5903 82.0248 59.625 81.7821 59.6596 81.5394C59.6942 81.2966 59.7635 81.0539 59.8674 80.8112C59.9713 80.5685 60.0753 80.3605 60.2484 80.1178C60.387 79.9097 60.5948 79.7017 60.8026 79.563C61.0105 79.4243 61.2529 79.2856 61.53 79.1816C61.8071 79.0776 62.1189 79.0429 62.4652 79.0429C62.8116 79.0429 63.0887 79.0776 63.3312 79.1469C63.5737 79.2163 63.7815 79.355 63.9547 79.4936C64.1278 79.6323 64.2318 79.8404 64.3357 80.0484C64.4049 80.2564 64.4396 80.4992 64.4396 80.8112ZM63.158 80.8806C63.158 80.7419 63.158 80.6032 63.1234 80.4992C63.0887 80.3951 63.0541 80.2911 62.9848 80.2218C62.9155 80.1524 62.8463 80.0831 62.7423 80.0484C62.6384 80.0137 62.4999 79.9791 62.3613 79.9791C62.1881 79.9791 62.0496 80.0137 61.911 80.0831C61.7725 80.1524 61.6686 80.2218 61.5647 80.3605C61.4608 80.4645 61.3568 80.6032 61.2876 80.7419C61.2183 80.8806 61.149 81.0539 61.1144 81.1926C61.0797 81.3313 61.0105 81.5047 61.0105 81.678C61.0105 81.8514 60.9758 81.9901 60.9758 82.1635C60.9758 82.3022 60.9758 82.4409 61.0105 82.5449C61.0451 82.6489 61.0797 82.7529 61.149 82.8223C61.2183 82.8916 61.2876 82.9609 61.3915 82.9956C61.4954 83.0303 61.6339 83.065 61.7725 83.065C61.9457 83.065 62.0842 83.0303 62.2228 82.961C62.3613 82.8916 62.4652 82.8223 62.5692 82.6836C62.6731 82.5795 62.777 82.4409 62.8463 82.3022C62.9155 82.1635 62.9848 81.9901 63.0194 81.8514C63.0541 81.7127 63.1234 81.5394 63.1234 81.366C63.1234 81.1926 63.158 81.0193 63.158 80.8806Z" fill="#2B2523"/>
<path d="M68.8731 77.2746C68.8731 77.3093 68.8731 77.344 68.8731 77.3786C68.8731 77.4133 68.8731 77.4827 68.8385 77.5173C68.8385 77.5867 68.8038 77.6213 68.8038 77.6907C68.8038 77.76 68.7692 77.7947 68.7692 77.8641C68.7692 77.9334 68.7346 77.9681 68.6999 78.0027C68.6653 78.0374 68.6653 78.0374 68.6307 78.0374C68.596 78.0374 68.596 78.0374 68.5614 78.0374C68.5267 78.0374 68.4921 78.0027 68.4575 78.0027C68.4228 78.0027 68.3882 77.9681 68.3189 77.9681C68.2843 77.9681 68.215 77.9681 68.1457 77.9681C68.0418 77.9681 67.9379 77.9681 67.8686 78.0027C67.7994 78.0374 67.7301 78.0721 67.6608 78.1414C67.5915 78.2108 67.5569 78.2801 67.5223 78.3842C67.4876 78.4882 67.453 78.6269 67.4183 78.7656L67.3491 79.147H68.1457C68.1804 79.147 68.215 79.147 68.2496 79.1816C68.2843 79.2163 68.2843 79.251 68.2843 79.3203C68.2843 79.355 68.2843 79.3897 68.2843 79.459C68.2843 79.5284 68.2843 79.563 68.2496 79.6324C68.2496 79.7017 68.215 79.7711 68.215 79.8057C68.1804 79.8751 68.1804 79.9098 68.1457 79.9791C68.1111 80.0485 68.1111 80.0831 68.0765 80.1178C68.0418 80.1525 68.0072 80.1525 67.9725 80.1525H67.1412L66.3446 84.0705C66.2753 84.3479 66.206 84.5906 66.1021 84.7987C65.9982 85.0067 65.8943 85.1801 65.7211 85.3188C65.5826 85.4574 65.4094 85.5615 65.2015 85.6308C64.9937 85.7002 64.7513 85.7348 64.5088 85.7348C64.3356 85.7348 64.1971 85.7348 64.0585 85.7002C63.92 85.6655 63.8507 85.6308 63.8507 85.6308C63.8507 85.5961 63.816 85.5961 63.816 85.5615C63.816 85.5268 63.816 85.4921 63.816 85.4574C63.816 85.4228 63.816 85.3881 63.816 85.3534C63.816 85.3188 63.816 85.2494 63.8507 85.2147C63.8507 85.1454 63.8853 85.1107 63.8853 85.0414C63.8853 84.972 63.92 84.9374 63.92 84.868C63.9546 84.8333 63.9546 84.764 63.9892 84.7293C64.0239 84.6946 64.0239 84.6946 64.0585 84.6946C64.0931 84.6946 64.0931 84.6946 64.1278 84.6946C64.1624 84.6946 64.1624 84.6946 64.1971 84.6946C64.2317 84.6946 64.2317 84.6946 64.2663 84.6946C64.301 84.6946 64.3356 84.6946 64.4049 84.6946C64.5088 84.6946 64.6127 84.6946 64.682 84.66C64.7513 84.6253 64.8205 84.5906 64.8898 84.5213C64.9591 84.4519 64.9937 84.3826 65.0284 84.2786C65.063 84.1745 65.0976 84.0358 65.1323 83.8972L65.8943 80.1178H65.3401C65.3055 80.1178 65.2708 80.1178 65.2362 80.0831C65.2015 80.0485 65.2015 80.0138 65.2015 79.9098C65.2015 79.8751 65.2015 79.8404 65.2015 79.7711C65.2015 79.7017 65.2015 79.6671 65.2362 79.5977C65.2362 79.5284 65.2708 79.4937 65.2708 79.4243C65.2708 79.355 65.3055 79.3203 65.3401 79.251C65.3747 79.2163 65.4094 79.147 65.444 79.147C65.4786 79.1123 65.5133 79.1123 65.5479 79.1123H66.1021L66.206 78.6269C66.2753 78.3495 66.3446 78.1068 66.4485 77.8987C66.5524 77.6907 66.691 77.5173 66.8295 77.3786C66.9681 77.2399 67.1759 77.1359 67.3491 77.0666C67.5223 76.9972 67.7994 76.9626 68.0418 76.9626C68.1457 76.9626 68.215 76.9626 68.3189 76.9626C68.4228 76.9626 68.4921 76.9972 68.5614 76.9972C68.6307 76.9972 68.6999 77.0319 68.7346 77.0666C68.8038 77.1013 68.8385 77.1012 68.8385 77.1359C68.8731 77.1359 68.8731 77.1706 68.8731 77.2053C68.8731 77.1706 68.8731 77.2053 68.8731 77.2746Z" fill="#2B2523"/>
<path d="M76.8052 84.2091C76.8052 84.2438 76.8052 84.2785 76.8052 84.3478C76.8052 84.4172 76.8052 84.4518 76.7705 84.5212C76.7705 84.5905 76.7359 84.6599 76.7359 84.7292C76.7359 84.7986 76.7013 84.8679 76.6666 84.9026C76.632 84.9719 76.5974 85.0066 76.5627 85.0413C76.5281 85.0759 76.4934 85.1106 76.4588 85.1106C76.4242 85.1106 76.3549 85.1106 76.2856 85.0759C76.2163 85.0413 76.1124 85.0413 76.0085 84.9719C75.9046 84.9373 75.8007 84.8679 75.6621 84.7986C75.5236 84.7292 75.4197 84.6599 75.2811 84.5558C75.1426 84.4518 75.004 84.3478 74.9001 84.2091C74.7616 84.0704 74.6577 83.9317 74.5191 83.793C74.3459 83.8624 74.1381 83.9317 73.9303 83.9664C73.7225 84.0011 73.48 84.0357 73.2375 84.0357C72.8219 84.0357 72.4755 84.0011 72.1638 83.8971C71.852 83.793 71.6096 83.6544 71.3671 83.481C71.1593 83.3076 70.9861 83.0649 70.8822 82.7875C70.7783 82.5101 70.709 82.1634 70.709 81.782C70.709 81.4699 70.7436 81.1579 70.7783 80.8112C70.8475 80.4644 70.9168 80.1177 71.0554 79.8056C71.1939 79.4936 71.3325 79.1815 71.5403 78.8695C71.7481 78.5574 71.9559 78.3147 72.233 78.072C72.5101 77.8293 72.8219 77.6559 73.2029 77.5172C73.5839 77.3785 73.9996 77.3092 74.4498 77.3092C74.8655 77.3092 75.2119 77.3439 75.5236 77.4479C75.8353 77.5519 76.0778 77.6906 76.3203 77.864C76.5281 78.0373 76.7013 78.28 76.8052 78.5921C76.9091 78.8695 76.9784 79.2162 76.9784 79.5976C76.9784 79.771 76.9784 79.979 76.9437 80.1871C76.9091 80.3951 76.8745 80.6031 76.8398 80.8112C76.8052 81.0192 76.7359 81.2272 76.6666 81.4699C76.5974 81.678 76.4934 81.886 76.3895 82.0941C76.2856 82.3021 76.1471 82.5101 76.0085 82.6835C75.87 82.8569 75.6968 83.0302 75.5236 83.2036C75.6968 83.377 75.8353 83.481 75.9739 83.585C76.1124 83.689 76.2163 83.7584 76.3203 83.793C76.4242 83.8277 76.4934 83.8971 76.5627 83.8971C76.632 83.9317 76.6666 83.9317 76.7013 83.9664C76.7359 84.0011 76.7359 84.0011 76.7359 84.0357C76.7359 84.0704 76.8052 84.1398 76.8052 84.2091ZM75.6275 79.7363C75.6275 79.5283 75.5929 79.3549 75.5582 79.1815C75.5236 79.0082 75.4543 78.8695 75.3504 78.7655C75.2465 78.6614 75.1079 78.5574 74.9694 78.4881C74.7962 78.4187 74.623 78.3841 74.3806 78.3841C74.1035 78.3841 73.8264 78.4534 73.6185 78.5574C73.4107 78.6614 73.2029 78.8001 73.0297 79.0082C72.8565 79.2162 72.718 79.3896 72.614 79.6323C72.5101 79.875 72.4062 80.083 72.3369 80.3257C72.2677 80.5685 72.233 80.8112 72.1984 81.0192C72.1638 81.2272 72.1638 81.4353 72.1638 81.6086C72.1638 81.8167 72.1984 81.99 72.233 82.1634C72.2677 82.3368 72.3369 82.4755 72.4409 82.5795C72.5448 82.6835 72.6833 82.7875 72.8219 82.8222C72.9951 82.8915 73.1683 82.9262 73.4107 82.9262C73.6878 82.9262 73.9649 82.8569 74.1727 82.7529C74.3806 82.6488 74.5884 82.5101 74.7616 82.3368C74.9348 82.1634 75.0733 81.9554 75.1772 81.7127C75.2811 81.47 75.385 81.2619 75.4543 81.0192C75.5236 80.7765 75.5582 80.5338 75.5929 80.3257C75.5929 80.1177 75.6275 79.9097 75.6275 79.7363Z" fill="#2B2523"/>
<path d="M81.5504 83.7585C81.5504 83.7932 81.5158 83.8279 81.5158 83.8625C81.5158 83.8972 81.4465 83.8972 81.4119 83.9319C81.3772 83.9319 81.308 83.9666 81.2387 83.9666C81.1694 83.9666 81.0655 83.9666 80.9616 83.9666C80.8577 83.9666 80.7884 83.9666 80.7191 83.9666C80.6498 83.9666 80.6152 83.9319 80.5806 83.9319C80.5459 83.9319 80.5113 83.8972 80.5113 83.8625C80.5113 83.8279 80.5113 83.7932 80.5113 83.7585L80.6498 83.0304C80.5806 83.1344 80.4767 83.2731 80.3727 83.3771C80.2688 83.4811 80.1303 83.6198 79.9571 83.6892C79.7839 83.7585 79.6454 83.8625 79.4722 83.9319C79.299 84.0012 79.1258 84.0359 78.918 84.0359C78.6755 84.0359 78.5023 84.0012 78.3291 83.9319C78.1559 83.8625 78.052 83.7932 77.9481 83.6545C77.8442 83.5505 77.7749 83.4118 77.7403 83.2384C77.7057 83.0651 77.671 82.9264 77.671 82.7183C77.671 82.6143 77.671 82.4756 77.7057 82.3716C77.7057 82.2676 77.7403 82.1289 77.7749 82.0249L78.3291 79.251C78.3291 79.2163 78.3638 79.1817 78.3638 79.147C78.3984 79.1123 78.433 79.1123 78.4677 79.0777C78.5023 79.043 78.5716 79.043 78.6755 79.043C78.7448 79.043 78.8487 79.043 78.9872 79.043C79.1258 79.043 79.1951 79.043 79.299 79.043C79.3683 79.043 79.4375 79.0777 79.4722 79.0777C79.5068 79.0777 79.5414 79.1123 79.5761 79.147C79.5761 79.1817 79.6107 79.2163 79.5761 79.251L79.0565 81.9209C79.0565 81.9902 79.0219 82.0595 79.0219 82.1636C79.0219 82.2329 79.0219 82.3369 79.0219 82.4063C79.0219 82.4756 79.0219 82.545 79.0565 82.6143C79.0565 82.6837 79.0912 82.7183 79.1258 82.7877C79.1604 82.8224 79.1951 82.857 79.2643 82.8917C79.3336 82.9264 79.3683 82.9264 79.4375 82.9264C79.5761 82.9264 79.7146 82.8917 79.8532 82.7877C79.9917 82.6837 80.1303 82.5796 80.2688 82.4063C80.4074 82.2676 80.5113 82.0595 80.6152 81.8515C80.7191 81.6435 80.7884 81.4008 80.8577 81.158L81.2387 79.2163C81.2387 79.1817 81.2733 79.147 81.2733 79.1123C81.308 79.0777 81.3426 79.0776 81.3772 79.043C81.4119 79.0083 81.4811 79.0083 81.5851 79.0083C81.6543 79.0083 81.7582 79.0083 81.8968 79.0083C82.0353 79.0083 82.1046 79.0083 82.2085 79.0083C82.2778 79.0083 82.3471 79.043 82.3817 79.043C82.4164 79.043 82.451 79.0777 82.4856 79.1123C82.4856 79.147 82.4856 79.1817 82.4856 79.2163L81.5504 83.7585Z" fill="#2B2523"/>
<path d="M86.954 83.7584C86.954 83.8278 86.8847 83.8625 86.7808 83.8971C86.6769 83.9318 86.5383 83.9318 86.3305 83.9318C86.2266 83.9318 86.1573 83.9318 86.0881 83.9318C86.0188 83.9318 85.9841 83.8971 85.9149 83.8971C85.8456 83.8971 85.8456 83.8625 85.8456 83.8278C85.8456 83.7931 85.8456 83.7584 85.8456 83.7238L85.9841 82.9956C85.9495 83.0996 85.8456 83.2037 85.7417 83.3424C85.6378 83.4811 85.4992 83.5851 85.3607 83.6544C85.2221 83.7584 85.0489 83.8278 84.8757 83.8971C84.7025 83.9665 84.4947 84.0012 84.3215 84.0012C84.0444 84.0012 83.8366 83.9665 83.6634 83.8625C83.4902 83.7584 83.3517 83.6544 83.2478 83.4811C83.1439 83.3077 83.0746 83.1343 83.0053 82.9263C82.936 82.7182 82.936 82.5102 82.936 82.3022C82.936 82.0941 82.9707 81.8514 83.0053 81.6087C83.0399 81.366 83.1092 81.1233 83.1785 80.8806C83.2478 80.6379 83.3517 80.3951 83.4902 80.1524C83.6288 79.9097 83.7673 79.7363 83.9405 79.5283C84.1137 79.3203 84.3215 79.2163 84.564 79.1122C84.8065 79.0082 85.0489 78.9389 85.3607 78.9389C85.6378 78.9389 85.8802 79.0082 86.0881 79.1122C86.2959 79.2163 86.5037 79.3896 86.6423 79.6323L86.7115 79.2509C86.7115 79.1816 86.7808 79.1469 86.8847 79.1122C86.9886 79.0776 87.1272 79.0776 87.335 79.0776C87.4389 79.0776 87.5082 79.0776 87.5775 79.0776C87.6468 79.0776 87.6814 79.1122 87.7507 79.1122C87.8199 79.1122 87.8199 79.1469 87.8199 79.1816C87.8199 79.2163 87.8199 79.2509 87.8199 79.2856L86.954 83.7584ZM86.3305 80.6379C86.2266 80.4645 86.0881 80.3258 85.9495 80.2218C85.811 80.1178 85.6378 80.0831 85.4646 80.0831C85.326 80.0831 85.1875 80.1178 85.0836 80.1871C84.9797 80.2565 84.8757 80.3605 84.7718 80.4645C84.6679 80.5685 84.5986 80.7072 84.5294 80.8459C84.4601 80.9846 84.3908 81.158 84.3562 81.2966C84.3215 81.4353 84.2869 81.6087 84.2523 81.7821C84.2176 81.9554 84.2176 82.0941 84.2176 82.2328C84.2176 82.3368 84.2176 82.4409 84.2523 82.5102C84.2523 82.6142 84.2869 82.6836 84.3215 82.7529C84.3562 82.8223 84.4255 82.8916 84.4947 82.9263C84.564 82.961 84.6333 82.9956 84.7372 82.9956C84.8757 82.9956 85.0489 82.961 85.1875 82.8569C85.326 82.7529 85.4992 82.6489 85.6031 82.5102C85.7417 82.3715 85.8456 82.1981 85.9495 81.9901C86.0534 81.7821 86.1227 81.574 86.1573 81.3313L86.3305 80.6379Z" fill="#2B2523"/>
<path d="M89.4824 83.7585C89.4824 83.7931 89.4478 83.8278 89.4478 83.8625C89.4478 83.8972 89.3785 83.8972 89.3439 83.9318C89.3093 83.9318 89.24 83.9665 89.1361 83.9665C89.0668 83.9665 88.9629 83.9665 88.8243 83.9665C88.6858 83.9665 88.5819 83.9665 88.5126 83.9665C88.4433 83.9665 88.374 83.9318 88.3394 83.9318C88.3048 83.9318 88.2701 83.8972 88.2355 83.8625C88.2355 83.8278 88.2008 83.7931 88.2355 83.7585L89.5517 77.1706C89.5517 77.1359 89.5863 77.1013 89.5863 77.0666C89.5863 77.0319 89.6556 77.0319 89.6903 76.9972C89.7595 76.9626 89.7942 76.9626 89.8981 76.9626C89.9674 76.9626 90.0713 76.9626 90.2098 76.9626C90.3484 76.9626 90.4177 76.9626 90.5216 76.9626C90.5908 76.9626 90.6601 76.9972 90.6948 76.9972C90.7294 77.0319 90.764 77.0319 90.764 77.0666C90.764 77.1013 90.764 77.1359 90.764 77.1706L89.4824 83.7585Z" fill="#2B2523"/>
<path d="M91.9764 83.7586C91.9764 83.7932 91.9418 83.8279 91.9418 83.8626C91.9418 83.8973 91.8725 83.8973 91.8379 83.9319C91.8033 83.9666 91.734 83.9666 91.6301 83.9666C91.5608 83.9666 91.4569 83.9666 91.3183 83.9666C91.1798 83.9666 91.1105 83.9666 91.0066 83.9666C90.9373 83.9666 90.868 83.9319 90.8334 83.9319C90.7988 83.9319 90.7641 83.8973 90.7295 83.8626C90.7295 83.8279 90.7295 83.7932 90.7295 83.7586L91.6301 79.3204C91.6301 79.2857 91.6647 79.2511 91.6647 79.2164C91.6647 79.1817 91.734 79.1817 91.7686 79.147C91.8033 79.1124 91.8725 79.1124 91.9764 79.1124C92.0457 79.1124 92.1496 79.1124 92.2882 79.1124C92.4267 79.1124 92.496 79.1124 92.5999 79.1124C92.6692 79.1124 92.7385 79.147 92.7731 79.147C92.8078 79.147 92.8424 79.1817 92.877 79.2164C92.877 79.2511 92.877 79.2857 92.877 79.3204L91.9764 83.7586ZM93.2927 77.7948C93.258 77.9335 93.2234 78.0375 93.1888 78.1069C93.1541 78.1762 93.0848 78.2455 93.0156 78.3149C92.9463 78.3496 92.877 78.4189 92.7731 78.4189C92.6692 78.4536 92.5653 78.4536 92.4267 78.4536C92.2882 78.4536 92.1843 78.4536 92.0804 78.4189C91.9764 78.3842 91.9418 78.3496 91.8725 78.3149C91.8379 78.2802 91.8033 78.2109 91.8033 78.1069C91.8033 78.0375 91.8033 77.9335 91.8379 77.7948C91.8725 77.6908 91.9072 77.5868 91.9418 77.4827C91.9764 77.4134 92.0457 77.344 92.115 77.2747C92.1843 77.2053 92.2535 77.1707 92.3575 77.1707C92.4614 77.136 92.5653 77.136 92.7038 77.136C92.8424 77.136 92.9463 77.136 93.0502 77.1707C93.1541 77.2053 93.1888 77.24 93.258 77.2747C93.2927 77.344 93.3273 77.4134 93.3273 77.4827C93.3273 77.5868 93.2927 77.6908 93.2927 77.7948Z" fill="#2B2523"/>
<path d="M96.7563 79.3551C96.7563 79.3897 96.7563 79.4244 96.7563 79.4938C96.7563 79.5631 96.7563 79.5978 96.7217 79.6671C96.7217 79.7365 96.687 79.7711 96.687 79.8405C96.6524 79.9098 96.6524 79.9445 96.6178 80.0139C96.5831 80.0832 96.5485 80.1179 96.5485 80.1179C96.5139 80.1525 96.4792 80.1525 96.4446 80.1525H95.4747L95.0591 82.2329C95.0591 82.2676 95.0245 82.337 95.0245 82.4063C95.0245 82.4756 95.0245 82.545 95.0245 82.5797C95.0245 82.7184 95.0591 82.8224 95.1284 82.857C95.1976 82.9264 95.3015 82.9611 95.4401 82.9611C95.5094 82.9611 95.5786 82.9611 95.6479 82.9264C95.7172 82.9264 95.7518 82.8917 95.7865 82.8917C95.8211 82.8917 95.8557 82.857 95.8904 82.857C95.925 82.857 95.9597 82.857 95.9597 82.857C95.9597 82.857 95.9943 82.857 96.0289 82.8917C96.0636 82.9264 96.0636 82.9611 96.0636 83.0304C96.0636 83.0998 96.0636 83.1691 96.0289 83.2384C96.0289 83.3078 95.9943 83.4118 95.9597 83.4812C95.925 83.5505 95.925 83.6198 95.8904 83.6892C95.8557 83.7585 95.8211 83.7932 95.8211 83.8279C95.7865 83.8626 95.7518 83.8972 95.6826 83.8972C95.6133 83.9319 95.544 83.9319 95.4747 83.9666C95.4055 84.0013 95.3016 84.0013 95.1976 84.0013C95.0937 84.0013 95.0244 84.0359 94.9205 84.0359C94.7127 84.0359 94.5395 84.0013 94.401 83.9666C94.2624 83.9319 94.1239 83.8626 94.02 83.7585C93.9161 83.6545 93.8468 83.5505 93.7775 83.4118C93.7082 83.2731 93.7082 83.0998 93.7082 82.8917C93.7082 82.857 93.7082 82.8224 93.7082 82.753C93.7082 82.7184 93.7082 82.649 93.7082 82.6143C93.7082 82.545 93.7082 82.5103 93.7429 82.441C93.7775 82.3716 93.7775 82.3369 93.7775 82.3023L94.2278 80.1179H93.6736C93.639 80.1179 93.6043 80.1179 93.5697 80.0832C93.535 80.0485 93.535 80.0138 93.535 79.9098C93.535 79.8405 93.535 79.7711 93.535 79.7018C93.535 79.5978 93.5697 79.5284 93.6043 79.4244C93.639 79.3204 93.6736 79.251 93.7082 79.1817C93.7429 79.1123 93.8121 79.0777 93.8468 79.0777H94.3663L94.5742 78.0722C94.5742 78.0375 94.6088 78.0028 94.6088 77.9681C94.6088 77.9335 94.6781 77.9335 94.7127 77.8988C94.7474 77.8641 94.8166 77.8641 94.9205 77.8641C94.9898 77.8641 95.0937 77.8641 95.2323 77.8641C95.3362 77.8641 95.4401 77.8641 95.544 77.8641C95.6133 77.8641 95.6826 77.8988 95.7172 77.8988C95.7518 77.8988 95.7865 77.9335 95.8211 77.9681C95.8211 78.0028 95.8557 78.0375 95.8211 78.0722L95.6133 79.0777H96.5831C96.6524 79.0777 96.687 79.1124 96.687 79.147C96.687 79.1817 96.7563 79.2857 96.7563 79.3551Z" fill="#2B2523"/>
<path d="M101.571 79.2856C101.571 79.3203 101.571 79.3896 101.571 79.4243C101.571 79.4936 101.536 79.5283 101.536 79.5977C101.432 79.9097 101.294 80.2218 101.155 80.5338C101.017 80.8459 100.878 81.1926 100.705 81.5394C100.532 81.8861 100.359 82.2328 100.116 82.6142C99.8738 82.9956 99.666 83.377 99.3542 83.7584L98.1419 85.4921C98.1073 85.5268 98.0726 85.5614 98.038 85.5961C98.0033 85.6308 97.9341 85.6308 97.8648 85.6654C97.7955 85.7001 97.7262 85.7001 97.6223 85.7001C97.5184 85.7001 97.4145 85.7001 97.276 85.7001C97.1374 85.7001 97.0335 85.7001 96.9296 85.6654C96.8257 85.6308 96.791 85.6308 96.7217 85.5961C96.6525 85.5614 96.6525 85.5268 96.6525 85.4921C96.6525 85.4574 96.6871 85.3881 96.7217 85.3534L97.8648 83.8624L97.1374 79.563C97.1374 79.5283 97.1374 79.459 97.1028 79.4243C97.1028 79.3896 97.1028 79.3203 97.1028 79.3203C97.1028 79.2509 97.1028 79.2163 97.1374 79.1816C97.172 79.1469 97.2067 79.1122 97.2413 79.1122C97.2759 79.0776 97.3452 79.0776 97.4491 79.0776C97.5531 79.0776 97.657 79.0776 97.7609 79.0776C97.8994 79.0776 98.0033 79.0776 98.0726 79.0776C98.1419 79.0776 98.2112 79.0776 98.2458 79.1122C98.2804 79.1122 98.3151 79.1469 98.3151 79.1816C98.3151 79.2163 98.3497 79.2509 98.3497 79.3203L98.8 82.4409C98.9732 82.1981 99.1117 81.9208 99.2503 81.678C99.3888 81.4353 99.5274 81.158 99.6313 80.8806C99.7352 80.6032 99.8391 80.3605 99.943 80.0831C100.047 79.8057 100.116 79.5283 100.22 79.2509C100.22 79.2163 100.255 79.1816 100.255 79.1469C100.289 79.1122 100.324 79.1122 100.359 79.0776C100.393 79.0429 100.497 79.0429 100.567 79.0429C100.67 79.0429 100.774 79.0429 100.913 79.0429C101.121 79.0429 101.259 79.0429 101.363 79.0776C101.536 79.1469 101.571 79.2163 101.571 79.2856Z" fill="#2B2523"/>
<path d="M104.584 77.2747C104.584 77.5174 104.515 77.7601 104.446 78.0028C104.342 78.2455 104.203 78.4536 104.03 78.6616L103.199 79.6325C103.13 79.7018 103.06 79.7365 102.991 79.7712C102.922 79.8058 102.783 79.8058 102.645 79.8058C102.541 79.8058 102.472 79.8058 102.437 79.8058C102.368 79.8058 102.333 79.7712 102.333 79.7712C102.298 79.7365 102.298 79.7365 102.298 79.7018C102.298 79.6671 102.333 79.6325 102.333 79.5631L103.199 78.2109L103.337 77.4827C103.372 77.3787 103.372 77.2747 103.407 77.2054C103.441 77.136 103.476 77.1013 103.545 77.032C103.615 76.9973 103.684 76.9626 103.753 76.9626C103.822 76.9626 103.926 76.928 104.065 76.928C104.169 76.928 104.273 76.928 104.342 76.9626C104.411 76.9626 104.481 76.9973 104.515 77.032C104.55 77.0667 104.584 77.1013 104.584 77.136C104.584 77.136 104.584 77.2053 104.584 77.2747ZM106.524 77.2747C106.524 77.5174 106.455 77.7601 106.351 78.0028C106.247 78.2455 106.108 78.4536 105.935 78.6616L105.104 79.6325C105.035 79.7018 104.965 79.7365 104.896 79.7712C104.827 79.8058 104.688 79.8058 104.55 79.8058C104.446 79.8058 104.377 79.8058 104.342 79.8058C104.273 79.8058 104.238 79.7712 104.238 79.7712C104.238 79.7712 104.203 79.7365 104.203 79.7018C104.203 79.6671 104.238 79.6325 104.273 79.5631L105.139 78.2109L105.277 77.4827C105.312 77.3787 105.312 77.2747 105.346 77.2054C105.381 77.136 105.416 77.1013 105.485 77.032C105.554 76.9973 105.624 76.9626 105.693 76.9626C105.762 76.9626 105.866 76.928 106.005 76.928C106.108 76.928 106.212 76.928 106.282 76.9626C106.351 76.9626 106.42 76.9973 106.455 77.032C106.489 77.0667 106.524 77.1013 106.524 77.136C106.524 77.136 106.524 77.2053 106.524 77.2747Z" fill="#2B2523"/>
<defs>
<linearGradient id="paint0_linear" x1="-3.25356" y1="40.6651" x2="138.938" y2="87.9085" gradientUnits="userSpaceOnUse">
<stop stop-color="#E99D00"/>
<stop offset="0.4843" stop-color="#FED06F"/>
<stop offset="1" stop-color="#E99D00"/>
</linearGradient>
</defs>
</svg>
