<svg xmlns="http://www.w3.org/2000/svg" width="1574" height="481"><clipPath id="a"><path d="M-513.86-6756.56h6760.42v9555.72H-513.86z"/></clipPath><g clip-path="url(#a)"><path fill-rule="evenodd" d="M613.4 150.9c27.9-27.2 63-41.4 102.8-41.4 38 0 73.8 14.7 101 42 28.4 27.8 43.7 64.1 43.7 102.7 0 40.3-14.7 76.6-40.8 103.8-27.9 28.4-64.8 43.7-103.9 43.7-42 0-77.8-14.7-105.6-44.2-26.1-27.8-39.7-63-39.7-104.4 0-39.2 14.7-75 42.5-102.2m176 104.7c0-42.2-33-76.3-73.8-76.3s-73.8 34.1-73.8 76.3 33 76.3 73.8 76.3 73.8-34.1 73.8-76.3m106.2-140.4H958v281.4h-62.4zm261.6 258.2c-18.7 18.2-37.4 25-63 25q-38.6 0-66.4-25c-25-21.6-37.5-49.9-37.5-83.4 0-30.7 12-57.9 34.1-79.5 19.9-19.2 44.3-29.5 71-29.5 26.1 0 45.9 9.1 60.1 27.3v-23.9h62.5v212.8h-60.8zm.6-84.2c0-29.1-23.5-52.5-52.5-52.5s-52.5 23.4-52.5 52.5c0 29 23.5 52.5 52.5 52.5s52.5-23.5 52.5-52.5m101.6 108.1V184.5h56.8v28.3c13-21.5 31.7-32.3 57.9-32.3 25.5 0 44.8 10.8 59 34 22.1-23.2 39.2-34 65.8-34 47.7 0 75 26.7 75 76.6v140.2h-61.3V282.1c0-30.1-6.3-43.2-29.6-43.2-23.8 0-36.9 14.2-36.9 43.2v115.2h-61.3V282.1c0-30.1-6.2-43.2-29.5-43.2-23.8 0-36.9 14.2-36.9 43.2v115.2z"/><path fill="#8ba026" fill-rule="evenodd" d="M481.2 240.6c-132.8 0-240.1 107.2-240.1 239.4 132.2 0 240.1-107.2 240.1-239.4M1 240.6C1 372.8 108.3 480 241.1 480c0-132.2-107.3-239.4-240.1-239.4"/><path fill="#b7c00c" d="M10.1 174.2c9-31.2 24.4-60.2 44.8-85.1 106.7 38 186.2 182.1 186.2 295.6 0-113.5 79.4-257.6 186.2-295.6 20.4 24.9 35.2 53.9 44.2 85.1-128.2 5.7-230.4 131.1-230.4 260.4 0-129.3-102.8-254.7-231-260.4m105-137.9C151.4 13.6 194.5.5 241.1.5c46 0 89.1 13.1 126 35.8-74.9 73.2-126 207.1-126 298.5 0-91.4-51.1-225.3-126-298.5"/></g></svg>